<?xml version="1.0" encoding="utf-8"?>
<!-- Generator: Adobe Illustrator 25.0.1, SVG Export Plug-In . SVG Version: 6.00 Build 0)  -->
<svg version="1.1" xmlns="http://www.w3.org/2000/svg" xmlns:xlink="http://www.w3.org/1999/xlink" x="0px" y="0px"
	 viewBox="0 0 400 400" style="enable-background:new 0 0 400 400;" xml:space="preserve">
<style type="text/css">
	.st0{fill:#282827;stroke:#282827;stroke-miterlimit:10;}
	.st1{fill:#059648;stroke:#282827;stroke-miterlimit:10;}
	.st2{fill:#0A9648;stroke:#020203;stroke-width:0.5168;stroke-miterlimit:10;}
	.st3{fill:#0A9648;}
</style>
<g id="Layer_1">
	<rect x="-4.98" y="-3.27" class="st0" width="406.65" height="406.65"/>
	<path class="st1" d="M54.96,39.64"/>
	<path class="st1" d="M74.7,42.7"/>
	<path class="st1" d="M-12.45,82.19"/>
	<path class="st1" d="M-33.55-6.32"/>
	<path class="st2" d="M99.72,396.45c0.12-10.72,0.24-21.45,0.36-32.17c-9.21-0.2-18.41-0.4-27.62-0.59
		c-3.61-0.35-13.18-1.77-20.62-9.42c-6.07-6.25-9.12-13.22-9.12-20.87c0-9.18,0-18.36,0-27.55c-10.97,0-21.93,0-32.9,0
		c0.12,11.21,0.23,22.41,0.35,33.62c0.67,5.75,3.26,21.46,16.01,35.54c15.68,17.31,35.74,20.04,40.82,20.59
		C77.91,395.88,88.82,396.17,99.72,396.45z"/>
	<path class="st2" d="M304.28,9.08c-0.12,10.72-0.24,21.45-0.36,32.17c9.21,0.2,18.41,0.4,27.62,0.59
		c3.61,0.35,13.18,1.77,20.62,9.42c6.07,6.25,9.12,13.22,9.12,20.87c0,9.18,0,18.36,0,27.55c10.97,0,21.93,0,32.9,0
		c-0.12-11.21-0.23-22.41-0.35-33.62c-0.67-5.75-3.26-21.46-16.01-35.54c-15.68-17.31-35.74-20.04-40.82-20.59
		C326.09,9.65,315.18,9.37,304.28,9.08z"/>
	<path class="st2" d="M9.66,99.14c10.72,0.12,21.45,0.24,32.17,0.36c0.2-9.21,0.4-18.41,0.59-27.62c0.35-3.61,1.77-13.18,9.42-20.62
		c6.25-6.07,13.22-9.12,20.87-9.12c9.18,0,18.36,0,27.55,0c0-10.97,0-21.93,0-32.9C89.05,9.37,77.85,9.49,66.64,9.6
		c-5.75,0.67-21.46,3.26-35.54,16.01C13.79,41.29,11.06,61.35,10.52,66.43C10.23,77.34,9.94,88.24,9.66,99.14z"/>
	<path class="st2" d="M394.34,306.39c-10.72-0.12-21.45-0.24-32.17-0.36c-0.2,9.21-0.4,18.41-0.59,27.62
		c-0.35,3.61-1.77,13.18-9.42,20.62c-6.25,6.07-13.22,9.12-20.87,9.12c-9.18,0-18.36,0-27.55,0c0,10.97,0,21.93,0,32.9
		c11.21-0.12,22.41-0.23,33.62-0.35c5.75-0.67,21.46-3.26,35.54-16.01c17.31-15.68,20.04-35.74,20.59-40.82
		C393.77,328.2,394.06,317.29,394.34,306.39z"/>
	<circle class="st3" cx="198.35" cy="200.05" r="66.26"/>
</g>
<g id="Layer_2">
</g>
</svg>
